<?xml version='1.0' encoding='utf-8'?>
<?xml-stylesheet href="https://fonts.googleapis.com/css?family=Open+Sans:300italic,400italic,600italic,700italic,800italic,400,300,600,700,800|Open+Sans+Condensed:300,300italic,700" type="text/css"?><svg xmlns:xlink="http://www.w3.org/1999/xlink" xmlns="http://www.w3.org/2000/svg" preserveAspectRatio="xMinYMin" viewBox="0 0 705 345" width="705" height="345"><rect fill="#eeeeee" height="345" width="705"/><rect transform="translate(1, 1)" width="703" height="343" fill="#ffffff" class="background" fill-opacity="1.0" style="shape-rendering: crispEdges"/><g class="chart-body" pointer-events="all" transform="translate(15, 60)"><rect width="675" height="270" fill-opacity="0" style="shape-rendering: crispEdges"/><g class="vertical labels"><g style="text-anchor:end;font-family:Open Sans;fill:#333333;font-size:12px" transform="translate(21.0, 239.0)"><text y="12">0</text></g><g style="text-anchor:end;font-family:Open Sans;fill:#333333;font-size:12px" transform="translate(21.0, 186.3887151877502)"><text y="12">200</text></g><g style="text-anchor:end;font-family:Open Sans;fill:#333333;font-size:12px" transform="translate(21.0, 133.7774303755004)"><text y="12">400</text></g><g style="text-anchor:end;font-family:Open Sans;fill:#333333;font-size:12px" transform="translate(21.0, 81.16614556325061)"><text y="12">600</text></g><g style="text-anchor:end;font-family:Open Sans;fill:#333333;font-size:12px" transform="translate(21.0, 28.554860751000803)"><text y="12">800</text></g></g><g transform="translate(26.0, 248)" class="horizontal labels"><g style="text-anchor:middle;font-family:Open Sans;fill:#333333;font-size:12px" transform="translate(44.0, 5)"><text y="12">Feb 5, 2017</text></g><g style="text-anchor:middle;font-family:Open Sans;fill:#333333;font-size:12px" transform="translate(154.0, 5)"><text y="12">Feb 15, 2017</text></g><g style="text-anchor:middle;font-family:Open Sans;fill:#333333;font-size:12px" transform="translate(264.0, 5)"><text y="12">Feb 25, 2017</text></g><g style="text-anchor:middle;font-family:Open Sans;fill:#333333;font-size:12px" transform="translate(374.0, 5)"><text y="12">Mar 7, 2017</text></g><g style="text-anchor:middle;font-family:Open Sans;fill:#333333;font-size:12px" transform="translate(484.0, 5)"><text y="12">Mar 17, 2017</text></g><g style="text-anchor:middle;font-family:Open Sans;fill:#333333;font-size:12px" transform="translate(594.0, 5)"><text y="12">Mar 27, 2017</text></g></g><g transform="translate(26.0, 0)" class="guide lines"><line x1="44.0" y1="248" x2="44.0" y2="0" stroke="#F2F2F2"/><line x1="154.0" y1="248" x2="154.0" y2="0" stroke="#F2F2F2"/><line x1="264.0" y1="248" x2="264.0" y2="0" stroke="#F2F2F2"/><line x1="374.0" y1="248" x2="374.0" y2="0" stroke="#F2F2F2"/><line x1="484.0" y1="248" x2="484.0" y2="0" stroke="#F2F2F2"/><line x1="594.0" y1="248" x2="594.0" y2="0" stroke="#F2F2F2"/><line x1="0" y1="248.0" x2="649.0" y2="248.0" stroke="#F2F2F2"/><line x1="0" y1="195.3887151877502" x2="649.0" y2="195.3887151877502" stroke="#F2F2F2"/><line x1="0" y1="142.7774303755004" x2="649.0" y2="142.7774303755004" stroke="#F2F2F2"/><line x1="0" y1="90.16614556325061" x2="649.0" y2="90.16614556325061" stroke="#F2F2F2"/><line x1="0" y1="37.5548607510008" x2="649.0" y2="37.5548607510008" stroke="#F2F2F2"/></g><g transform="translate(26.0, 0)"><g clip-path="url(#clip-id-140291185481432)" class="plot"><clipPath id="clip-id-140291185481432"><rect class="background" height="248" width="649.0" x="0" y="0"/></clipPath><path class="tooltip-trigger line" stroke="#0b84a5" fill="#0b84a5" stroke-width="1.75" d="M 0.0 244.23449698201122 L 11.0 241.88589389564353 L 22.0 234.95873811784176 L 33.0 233.26500686055942 L 44.0 225.9569408222181 L 55.0 228.16396856989542 L 66.0 227.87044806451834 L 77.0 218.47937874846846 L 88.0 208.30059609510377 L 99.0 210.9126951187754 L 110.0 199.93069665094168 L 121.0 200.0305244631519 L 132.0 212.9360862754134 L 143.0 187.72216350923838 L 154.0 200.44852503817668 L 165.0 188.57624491303548 L 176.0 177.9214101060319 L 187.0 182.4352995390914 L 198.0 173.9039103305177 L 209.0 195.03982946731867 L 220.0 170.2462802290394 L 231.0 156.59406151868777 L 242.0 159.5462934649293 L 253.0 178.98150455992487 L 264.0 138.89935763378247 L 275.0 176.31194707397418 L 286.0 128.05147938814662 L 297.0 149.21140028660676 L 308.0 151.5933676033206 L 319.0 130.63388789450636 L 330.0 162.7324994908744 L 341.0 105.3022267967354 L 352.0 104.82314590228737 L 363.0 96.11902207624831 L 374.0 119.51169290526741 L 385.0 94.08757370249535 L 396.0 125.85805620209123 L 407.0 99.18514007637879 L 418.0 111.75491869565394 L 429.0 118.39122858238937 L 440.0 118.72897606113102 L 451.0 105.55947454577975 L 462.0 129.07419604113585 L 473.0 106.33708540085709 L 484.0 102.87312694701401 L 495.0 95.95847877964306 L 506.0 45.75748901507973 L 517.0 109.98308441017835 L 528.0 36.45869055567394 L 539.0 61.45664336476298 L 550.0 100.4673685987141 L 561.0 63.51604029909291 L 572.0 67.07266456813616 L 583.0 26.165527818324477 L 594.0 39.38638273475365 L 605.0 62.87577144401246 L 616.0 6.621282313522585 L 627.0 29.713899855578006 L 638.0 0.0 L 649.0 62.7726937063228" fill-opacity="0"/></g></g></g><g transform="translate(1, 1)"><g transform="translate(329.0, 11.25)" fill="rgb(51, 51, 51)" class="drag-handle-icon hover" opacity="0.3" display="none"><svg width="45" height="22.5" viewBox="0 0 38 6" version="1.1" id="rpzxhevnly">
    <g stroke-width="1" fill-rule="evenodd">
        <rect x="0" y="0" width="2" height="2"/>
        <rect x="4" y="0" width="2" height="2"/>
        <rect x="0" y="4" width="2" height="2"/>
        <rect x="4" y="4" width="2" height="2"/>
        <rect x="8" y="0" width="2" height="2"/>
        <rect x="12" y="0" width="2" height="2"/>
        <rect x="8" y="4" width="2" height="2"/>
        <rect x="12" y="4" width="2" height="2"/>
        <rect x="16" y="0" width="2" height="2"/>
        <rect x="16" y="4" width="2" height="2"/>
        <rect x="20" y="0" width="2" height="2"/>
        <rect x="24" y="0" width="2" height="2"/>
        <rect x="20" y="4" width="2" height="2"/>
        <rect x="24" y="4" width="2" height="2"/>
        <rect x="28" y="0" width="2" height="2"/>
        <rect x="32" y="0" width="2" height="2"/>
        <rect x="28" y="4" width="2" height="2"/>
        <rect x="32" y="4" width="2" height="2"/>
        <rect x="36" y="0" width="2" height="2"/>
        <rect x="36" y="4" width="2" height="2"/>
    </g>
</svg></g><g class="title drag-handle" pointer-events="all"><rect width="703" height="45" class="title-background" stroke-dasharray="0 748 703 45" fill-opacity="0"/><g style="text-anchor:start;font-family:Open Sans;fill:#333333;font-size:15px" transform="translate(15, 0)"><text y="28.0">Incremental Linear Random Sequence</text></g></g></g><g transform="translate(674, 1)" class="settings-button" pointer-events="all" display="none"><rect width="30" height="45" fill="#000000" fill-opacity="0.0"/><circle cx="15.0" cy="15.0" r="2.5" fill="#333333" fill-opacity="0.3"/><circle cx="15.0" cy="22.5" r="2.5" fill="#333333" fill-opacity="0.3"/><circle cx="15.0" cy="30.0" r="2.5" fill="#333333" fill-opacity="0.3"/></g></svg>