<?xml version='1.0' encoding='utf-8'?>
<?xml-stylesheet href="https://fonts.googleapis.com/css?family=Open+Sans:300italic,400italic,600italic,700italic,800italic,400,300,600,700,800|Open+Sans+Condensed:300,300italic,700" type="text/css"?><svg xmlns:xlink="http://www.w3.org/1999/xlink" xmlns="http://www.w3.org/2000/svg" preserveAspectRatio="xMinYMin" viewBox="0 0 705 345" width="705" height="345"><rect fill="#eeeeee" height="345" width="705"/><rect transform="translate(1, 1)" width="703" height="343" class="background" fill="#ffffff" fill-opacity="1.0" style="shape-rendering: crispEdges"/><g class="chart-body" pointer-events="all" transform="translate(15, 60)"><rect width="675" height="270" fill-opacity="0" style="shape-rendering: crispEdges"/><g class="vertical labels"><g style="font-size:12px;font-family:Open Sans;text-anchor:end;fill:#333333" transform="translate(24.0, 239.0)"><text y="12">0</text></g><g style="font-size:12px;font-family:Open Sans;text-anchor:end;fill:#333333" transform="translate(24.0, 167.5338373028586)"><text y="12">400</text></g><g style="font-size:12px;font-family:Open Sans;text-anchor:end;fill:#333333" transform="translate(24.0, 96.06767460571717)"><text y="12">800</text></g><g style="font-size:12px;font-family:Open Sans;text-anchor:end;fill:#333333" transform="translate(24.0, 24.60151190857576)"><text y="12">1.2K</text></g></g><g transform="translate(29.0, 248)" class="horizontal labels"><g style="font-size:12px;font-family:Open Sans;text-anchor:middle;fill:#333333" transform="translate(43.79661016949152, 5)"><text y="12">Feb 5, 2017</text></g><g style="font-size:12px;font-family:Open Sans;text-anchor:middle;fill:#333333" transform="translate(153.28813559322035, 5)"><text y="12">Feb 15, 2017</text></g><g style="font-size:12px;font-family:Open Sans;text-anchor:middle;fill:#333333" transform="translate(262.77966101694915, 5)"><text y="12">Feb 25, 2017</text></g><g style="font-size:12px;font-family:Open Sans;text-anchor:middle;fill:#333333" transform="translate(372.271186440678, 5)"><text y="12">Mar 7, 2017</text></g><g style="font-size:12px;font-family:Open Sans;text-anchor:middle;fill:#333333" transform="translate(481.76271186440675, 5)"><text y="12">Mar 17, 2017</text></g><g style="font-size:12px;font-family:Open Sans;text-anchor:middle;fill:#333333" transform="translate(591.2542372881356, 5)"><text y="12">Mar 27, 2017</text></g></g><g transform="translate(29.0, 0)" class="guide lines"><line x1="43.79661016949152" y1="248" x2="43.79661016949152" y2="0" stroke="#F2F2F2"/><line x1="153.28813559322035" y1="248" x2="153.28813559322035" y2="0" stroke="#F2F2F2"/><line x1="262.77966101694915" y1="248" x2="262.77966101694915" y2="0" stroke="#F2F2F2"/><line x1="372.271186440678" y1="248" x2="372.271186440678" y2="0" stroke="#F2F2F2"/><line x1="481.76271186440675" y1="248" x2="481.76271186440675" y2="0" stroke="#F2F2F2"/><line x1="591.2542372881356" y1="248" x2="591.2542372881356" y2="0" stroke="#F2F2F2"/><line x1="0" y1="248.0" x2="646.0" y2="248.0" stroke="#F2F2F2"/><line x1="0" y1="176.5338373028586" x2="646.0" y2="176.5338373028586" stroke="#F2F2F2"/><line x1="0" y1="105.06767460571717" x2="646.0" y2="105.06767460571717" stroke="#F2F2F2"/><line x1="0" y1="33.60151190857576" x2="646.0" y2="33.60151190857576" stroke="#F2F2F2"/></g><g transform="translate(29.0, 0)"><g clip-path="url(#clip-id-140653075535016)" class="plot"><clipPath id="clip-id-140653075535016"><rect class="background" height="248" width="646.0" x="0" y="0"/></clipPath><path class="tooltip-trigger line" stroke="#0b84a5" fill="#0b84a5" stroke-width="1.75" d="M 0.0 73.923502062475 L 10.94915254237288 58.782954286886195 L 21.89830508474576 0.0 L 32.847457627118644 110.02699019190482 L 43.79661016949152 108.77915858056213 L 54.74576271186441 99.68301586033562 L 65.69491525423729 111.76655107538534 L 76.64406779661017 158.81546213967215 L 87.59322033898304 170.77708147127976 L 98.54237288135593 176.72187599603635 L 109.49152542372882 159.4737113553095 L 120.44067796610169 170.22162121296327 L 131.38983050847457 197.46642234736208 L 142.33898305084745 186.78508951166089 L 153.28813559322035 177.99872809462119 L 164.23728813559322 202.79982005781724 L 175.1864406779661 215.5795944251362 L 186.135593220339 198.30907837240753 L 197.08474576271186 213.4468798438235 L 208.03389830508473 206.47882647619534 L 218.98305084745763 227.7927434340922 L 229.9322033898305 217.26068760638714 L 240.88135593220338 223.32915048651205 L 251.83050847457628 230.42084661483867 L 262.77966101694915 222.98144175430173 L 273.728813559322 227.37148232549987 L 284.6779661016949 230.44044906496725 L 295.6271186440678 235.04971084689876 L 306.5762711864407 236.92258467298686 L 317.52542372881356 238.4397444188059 L 328.47457627118644 237.53123201184727 L 339.4237288135593 239.4179954490814 L 350.3728813559322 239.33288156884566 L 361.3220338983051 240.84494597494685 L 372.271186440678 240.952039519948 L 383.22033898305085 240.3951568802124 L 394.1694915254237 244.3704519417706 L 405.1186440677966 244.18502646597292 L 416.06779661016947 244.92201367543828 L 427.0169491525424 245.04867986265808 L 437.96610169491527 244.87622749757793 L 448.91525423728814 244.51776354211287 L 459.864406779661 244.80625047622655 L 470.8135593220339 245.52746082490722 L 481.76271186440675 246.24474607994958 L 492.7118644067797 245.80795838906155 L 503.66101694915255 245.73614173732426 L 514.6101694915254 246.62030698493697 L 525.5593220338983 246.5524167225962 L 536.5084745762712 246.8729779069648 L 547.457627118644 247.0675286358795 L 558.4067796610169 246.91961276889708 L 569.3559322033898 246.67689752246386 L 580.3050847457627 246.9831228390021 L 591.2542372881356 247.08544108780865 L 602.2033898305085 247.05965237147635 L 613.1525423728814 247.35250932407513 L 624.1016949152543 247.45610339094594 L 635.0508474576271 247.53388121083958 L 646.0 247.42641685348966" fill-opacity="0"/></g></g></g><g transform="translate(1, 1)"><g transform="translate(329.0, 11.25)" class="drag-handle-icon hover" display="none" opacity="0.3" fill="rgb(51, 51, 51)"><svg width="45" height="22.5" viewBox="0 0 38 6" version="1.1" id="cefpfvavwy">
    <g stroke-width="1" fill-rule="evenodd">
        <rect x="0" y="0" width="2" height="2"/>
        <rect x="4" y="0" width="2" height="2"/>
        <rect x="0" y="4" width="2" height="2"/>
        <rect x="4" y="4" width="2" height="2"/>
        <rect x="8" y="0" width="2" height="2"/>
        <rect x="12" y="0" width="2" height="2"/>
        <rect x="8" y="4" width="2" height="2"/>
        <rect x="12" y="4" width="2" height="2"/>
        <rect x="16" y="0" width="2" height="2"/>
        <rect x="16" y="4" width="2" height="2"/>
        <rect x="20" y="0" width="2" height="2"/>
        <rect x="24" y="0" width="2" height="2"/>
        <rect x="20" y="4" width="2" height="2"/>
        <rect x="24" y="4" width="2" height="2"/>
        <rect x="28" y="0" width="2" height="2"/>
        <rect x="32" y="0" width="2" height="2"/>
        <rect x="28" y="4" width="2" height="2"/>
        <rect x="32" y="4" width="2" height="2"/>
        <rect x="36" y="0" width="2" height="2"/>
        <rect x="36" y="4" width="2" height="2"/>
    </g>
</svg></g><g class="title drag-handle" pointer-events="all"><rect width="703" height="45" stroke-dasharray="0 748 703 45" class="title-background" fill-opacity="0"/><g style="font-size:15px;font-family:Open Sans;text-anchor:start;fill:#333333" transform="translate(15, 0)"><text y="28.0">Exponential Decay Random Sequence</text></g></g></g><g transform="translate(674, 1)" class="settings-button" pointer-events="all" display="none"><rect width="30" height="45" fill="#000000" fill-opacity="0.0"/><circle cx="15.0" cy="15.0" r="2.5" fill="#333333" fill-opacity="0.3"/><circle cx="15.0" cy="22.5" r="2.5" fill="#333333" fill-opacity="0.3"/><circle cx="15.0" cy="30.0" r="2.5" fill="#333333" fill-opacity="0.3"/></g></svg>