<?xml version='1.0' encoding='utf-8'?>
<?xml-stylesheet href="https://fonts.googleapis.com/css?family=Open+Sans:300italic,400italic,600italic,700italic,800italic,400,300,600,700,800|Open+Sans+Condensed:300,300italic,700" type="text/css"?><svg xmlns:xlink="http://www.w3.org/1999/xlink" xmlns="http://www.w3.org/2000/svg" preserveAspectRatio="xMinYMin" viewBox="0 0 705 345" width="705" height="345"><rect fill="#eeeeee" height="345" width="705"/><rect transform="translate(1, 1)" width="703" height="343" fill-opacity="1.0" fill="#ffffff" class="background" style="shape-rendering: crispEdges"/><g class="chart-body" pointer-events="all" transform="translate(15, 60)"><rect width="675" height="270" fill-opacity="0" style="shape-rendering: crispEdges"/><g class="vertical labels"><g style="text-anchor:end;font-size:12px;font-family:Open Sans;fill:#333333" transform="translate(17.0, 239.0)"><text y="12">0</text></g><g style="text-anchor:end;font-size:12px;font-family:Open Sans;fill:#333333" transform="translate(17.0, 187.9180988876615)"><text y="12">0.2</text></g><g style="text-anchor:end;font-size:12px;font-family:Open Sans;fill:#333333" transform="translate(17.0, 136.836197775323)"><text y="12">0.4</text></g><g style="text-anchor:end;font-size:12px;font-family:Open Sans;fill:#333333" transform="translate(17.0, 85.75429666298453)"><text y="12">0.6</text></g><g style="text-anchor:end;font-size:12px;font-family:Open Sans;fill:#333333" transform="translate(17.0, 34.672395550646)"><text y="12">0.8</text></g></g><g transform="translate(22.0, 248)" class="horizontal labels"><g style="text-anchor:middle;font-size:12px;font-family:Open Sans;fill:#333333" transform="translate(44.271186440677965, 5)"><text y="12">Feb 5, 2017</text></g><g style="text-anchor:middle;font-size:12px;font-family:Open Sans;fill:#333333" transform="translate(154.94915254237287, 5)"><text y="12">Feb 15, 2017</text></g><g style="text-anchor:middle;font-size:12px;font-family:Open Sans;fill:#333333" transform="translate(265.6271186440678, 5)"><text y="12">Feb 25, 2017</text></g><g style="text-anchor:middle;font-size:12px;font-family:Open Sans;fill:#333333" transform="translate(376.3050847457627, 5)"><text y="12">Mar 7, 2017</text></g><g style="text-anchor:middle;font-size:12px;font-family:Open Sans;fill:#333333" transform="translate(486.9830508474576, 5)"><text y="12">Mar 17, 2017</text></g><g style="text-anchor:middle;font-size:12px;font-family:Open Sans;fill:#333333" transform="translate(597.6610169491526, 5)"><text y="12">Mar 27, 2017</text></g></g><g transform="translate(22.0, 0)" class="guide lines"><line x1="44.271186440677965" y1="248" x2="44.271186440677965" y2="0" stroke="#F2F2F2"/><line x1="154.94915254237287" y1="248" x2="154.94915254237287" y2="0" stroke="#F2F2F2"/><line x1="265.6271186440678" y1="248" x2="265.6271186440678" y2="0" stroke="#F2F2F2"/><line x1="376.3050847457627" y1="248" x2="376.3050847457627" y2="0" stroke="#F2F2F2"/><line x1="486.9830508474576" y1="248" x2="486.9830508474576" y2="0" stroke="#F2F2F2"/><line x1="597.6610169491526" y1="248" x2="597.6610169491526" y2="0" stroke="#F2F2F2"/><line x1="0" y1="248.0" x2="653.0" y2="248.0" stroke="#F2F2F2"/><line x1="0" y1="196.9180988876615" x2="653.0" y2="196.9180988876615" stroke="#F2F2F2"/><line x1="0" y1="145.836197775323" x2="653.0" y2="145.836197775323" stroke="#F2F2F2"/><line x1="0" y1="94.75429666298453" x2="653.0" y2="94.75429666298453" stroke="#F2F2F2"/><line x1="0" y1="43.672395550646" x2="653.0" y2="43.672395550646" stroke="#F2F2F2"/></g><g transform="translate(22.0, 0)"><g clip-path="url(#clip-id-140184084094928)" class="plot"><clipPath id="clip-id-140184084094928"><rect class="background" height="248" width="653.0" x="0" y="0"/></clipPath><path class="tooltip-trigger line" stroke="#0b84a5" fill="#0b84a5" stroke-width="1.75" d="M 0.0 137.85032736887155 L 11.067796610169491 134.55140108248742 L 22.135593220338983 76.15677787669736 L 33.20338983050848 107.04701378008988 L 44.271186440677965 90.6525666719057 L 55.33898305084746 74.29473575362402 L 66.40677966101696 92.20186386671364 L 77.47457627118644 91.5943621123485 L 88.54237288135593 10.545456031610371 L 99.61016949152543 21.65655809518745 L 110.67796610169492 55.46614580596514 L 121.7457627118644 187.257053510339 L 132.8135593220339 49.73114685184382 L 143.88135593220338 102.20687795153438 L 154.94915254237287 60.92332620291717 L 166.01694915254237 163.4105674303134 L 177.08474576271186 241.46086791715138 L 188.15254237288136 98.17212965197021 L 199.22033898305085 230.7000635795055 L 210.28813559322035 156.12207813302814 L 221.35593220338984 100.87557487562574 L 232.42372881355934 215.88954484224516 L 243.4915254237288 136.39990800430414 L 254.5593220338983 176.15022915741878 L 265.6271186440678 45.505139678982175 L 276.6949152542373 150.3875963053265 L 287.76271186440675 45.23936667072209 L 298.8305084745763 45.369702271574994 L 309.89830508474574 167.17394258026596 L 320.96610169491527 223.13634409263858 L 332.03389830508473 117.65254472564635 L 343.10169491525426 57.024269949137505 L 354.1694915254237 109.68774517512603 L 365.23728813559325 201.21882816403618 L 376.3050847457627 171.48078917198555 L 387.3728813559322 207.74981728978986 L 398.4406779661017 27.513563917660207 L 409.50847457627117 15.682653038699186 L 420.5762711864407 51.344179402138366 L 431.64406779661016 45.46852539202874 L 442.7118644067797 44.748716576644824 L 453.77966101694915 114.219830769796 L 464.8474576271187 240.1350844640602 L 475.91525423728814 101.88936899018111 L 486.9830508474576 223.83621428302285 L 498.0508474576271 53.05841054804307 L 509.1186440677966 17.299936420494504 L 520.1864406779661 217.2970820812399 L 531.2542372881356 158.64004576170578 L 542.3220338983051 0.0 L 553.3898305084746 125.41916021426805 L 564.457627118644 11.515620637331523 L 575.5254237288135 223.29905040393763 L 586.5932203389831 13.81906821857217 L 597.6610169491526 195.07535535644277 L 608.728813559322 20.804190082919803 L 619.7966101694915 171.61617008559114 L 630.8644067796611 247.72422746992302 L 641.9322033898305 73.5833979161873 L 653.0 90.7901126658571" fill-opacity="0"/></g></g></g><g transform="translate(1, 1)"><g transform="translate(329.0, 11.25)" opacity="0.3" fill="rgb(51, 51, 51)" class="drag-handle-icon hover" display="none"><svg width="45" height="22.5" viewBox="0 0 38 6" version="1.1" id="yxrfbbapoe">
    <g stroke-width="1" fill-rule="evenodd">
        <rect x="0" y="0" width="2" height="2"/>
        <rect x="4" y="0" width="2" height="2"/>
        <rect x="0" y="4" width="2" height="2"/>
        <rect x="4" y="4" width="2" height="2"/>
        <rect x="8" y="0" width="2" height="2"/>
        <rect x="12" y="0" width="2" height="2"/>
        <rect x="8" y="4" width="2" height="2"/>
        <rect x="12" y="4" width="2" height="2"/>
        <rect x="16" y="0" width="2" height="2"/>
        <rect x="16" y="4" width="2" height="2"/>
        <rect x="20" y="0" width="2" height="2"/>
        <rect x="24" y="0" width="2" height="2"/>
        <rect x="20" y="4" width="2" height="2"/>
        <rect x="24" y="4" width="2" height="2"/>
        <rect x="28" y="0" width="2" height="2"/>
        <rect x="32" y="0" width="2" height="2"/>
        <rect x="28" y="4" width="2" height="2"/>
        <rect x="32" y="4" width="2" height="2"/>
        <rect x="36" y="0" width="2" height="2"/>
        <rect x="36" y="4" width="2" height="2"/>
    </g>
</svg></g><g class="title drag-handle" pointer-events="all"><rect width="703" height="45" fill-opacity="0" stroke-dasharray="0 748 703 45" class="title-background"/><g style="text-anchor:start;font-size:15px;font-family:Open Sans;fill:#333333" transform="translate(15, 0)"><text y="28.0">Random Sequence</text></g></g></g><g transform="translate(674, 1)" class="settings-button" pointer-events="all" display="none"><rect width="30" height="45" fill-opacity="0.0" fill="#000000"/><circle cx="15.0" cy="15.0" r="2.5" fill="#333333" fill-opacity="0.3"/><circle cx="15.0" cy="22.5" r="2.5" fill="#333333" fill-opacity="0.3"/><circle cx="15.0" cy="30.0" r="2.5" fill="#333333" fill-opacity="0.3"/></g></svg>