<?xml version='1.0' encoding='utf-8'?>
<?xml-stylesheet href="https://fonts.googleapis.com/css?family=Open+Sans:300italic,400italic,600italic,700italic,800italic,400,300,600,700,800|Open+Sans+Condensed:300,300italic,700" type="text/css"?><svg xmlns:xlink="http://www.w3.org/1999/xlink" xmlns="http://www.w3.org/2000/svg" preserveAspectRatio="xMinYMin" viewBox="0 0 705 345" width="705" height="345"><rect fill="#eeeeee" height="345" width="705"/><rect transform="translate(1, 1)" width="703" height="343" class="background" fill="#ffffff" fill-opacity="1.0" style="shape-rendering: crispEdges"/><g class="chart-body" pointer-events="all" transform="translate(15, 60)"><rect width="675" height="270" fill-opacity="0" style="shape-rendering: crispEdges"/><g class="vertical labels"><g style="fill:#333333;font-size:12px;text-anchor:end;font-family:Open Sans" transform="translate(14.0, 239.0)"><text y="12">0</text></g><g style="fill:#333333;font-size:12px;text-anchor:end;font-family:Open Sans" transform="translate(14.0, 180.15360359997584)"><text y="12">4</text></g><g style="fill:#333333;font-size:12px;text-anchor:end;font-family:Open Sans" transform="translate(14.0, 121.30720719995168)"><text y="12">8</text></g><g style="fill:#333333;font-size:12px;text-anchor:end;font-family:Open Sans" transform="translate(14.0, 62.460810799927486)"><text y="12">12</text></g><g style="fill:#333333;font-size:12px;text-anchor:end;font-family:Open Sans" transform="translate(14.0, 3.6144143999033247)"><text y="12">16</text></g></g><g transform="translate(19.0, 248)" class="horizontal labels"><g style="fill:#333333;font-size:12px;text-anchor:middle;font-family:Open Sans" transform="translate(44.47457627118644, 5)"><text y="12">Feb 5, 2017</text></g><g style="fill:#333333;font-size:12px;text-anchor:middle;font-family:Open Sans" transform="translate(155.66101694915255, 5)"><text y="12">Feb 15, 2017</text></g><g style="fill:#333333;font-size:12px;text-anchor:middle;font-family:Open Sans" transform="translate(266.8474576271187, 5)"><text y="12">Feb 25, 2017</text></g><g style="fill:#333333;font-size:12px;text-anchor:middle;font-family:Open Sans" transform="translate(378.03389830508473, 5)"><text y="12">Mar 7, 2017</text></g><g style="fill:#333333;font-size:12px;text-anchor:middle;font-family:Open Sans" transform="translate(489.22033898305085, 5)"><text y="12">Mar 17, 2017</text></g><g style="fill:#333333;font-size:12px;text-anchor:middle;font-family:Open Sans" transform="translate(600.4067796610169, 5)"><text y="12">Mar 27, 2017</text></g></g><g transform="translate(19.0, 0)" class="guide lines"><line x1="44.47457627118644" y1="248" x2="44.47457627118644" y2="0" stroke="#F2F2F2"/><line x1="155.66101694915255" y1="248" x2="155.66101694915255" y2="0" stroke="#F2F2F2"/><line x1="266.8474576271187" y1="248" x2="266.8474576271187" y2="0" stroke="#F2F2F2"/><line x1="378.03389830508473" y1="248" x2="378.03389830508473" y2="0" stroke="#F2F2F2"/><line x1="489.22033898305085" y1="248" x2="489.22033898305085" y2="0" stroke="#F2F2F2"/><line x1="600.4067796610169" y1="248" x2="600.4067796610169" y2="0" stroke="#F2F2F2"/><line x1="0" y1="248.0" x2="656.0" y2="248.0" stroke="#F2F2F2"/><line x1="0" y1="189.15360359997584" x2="656.0" y2="189.15360359997584" stroke="#F2F2F2"/><line x1="0" y1="130.30720719995168" x2="656.0" y2="130.30720719995168" stroke="#F2F2F2"/><line x1="0" y1="71.46081079992749" x2="656.0" y2="71.46081079992749" stroke="#F2F2F2"/><line x1="0" y1="12.614414399903325" x2="656.0" y2="12.614414399903325" stroke="#F2F2F2"/></g><g transform="translate(19.0, 0)"><g clip-path="url(#clip-id-139879792396496)" class="plot"><clipPath id="clip-id-139879792396496"><rect class="background" height="248" width="656.0" x="0" y="0"/></clipPath><path class="tooltip-trigger line" stroke="#0b84a5" fill="#0b84a5" stroke-width="1.75" d="M 0.0 91.11229450422113 L 11.11864406779661 29.12057559624955 L 22.23728813559322 59.80294733572566 L 33.355932203389834 50.12124028750668 L 44.47457627118644 33.85367419757927 L 55.59322033898305 12.652391070554302 L 66.71186440677967 80.16069882414072 L 77.83050847457628 78.72265388182998 L 88.94915254237289 90.17148208514578 L 100.0677966101695 1.1148626554625025 L 111.1864406779661 46.00876071745665 L 122.30508474576271 36.81233040444533 L 133.42372881355934 4.042897608798455 L 144.54237288135593 17.60669309008526 L 155.66101694915255 0.0 L 166.77966101694915 53.49973313394409 L 177.89830508474577 80.76006741039956 L 189.01694915254237 63.910900014642266 L 200.135593220339 23.792506878031077 L 211.25423728813558 8.170628581984829 L 222.3728813559322 65.00919679013731 L 233.4915254237288 50.81221252993308 L 244.61016949152543 13.805429372988868 L 255.72881355932202 94.53157593453821 L 266.8474576271187 0.10699772351071601 L 277.96610169491527 30.822499448610614 L 289.08474576271186 95.62039069537423 L 300.20338983050846 58.85973499298859 L 311.3220338983051 5.273336590332548 L 322.4406779661017 21.027957289127897 L 333.5593220338983 93.51448597531709 L 344.6779661016949 98.48281574670204 L 355.79661016949154 52.24571758548015 L 366.91525423728814 52.43342431110315 L 378.03389830508473 47.72004703426916 L 389.1525423728813 88.19657648316215 L 400.271186440678 67.1830000338058 L 411.3898305084746 26.996736858470285 L 422.50847457627117 66.03522131709818 L 433.6271186440678 56.470473119011984 L 444.7457627118644 30.20878421403549 L 455.864406779661 11.159973034615234 L 466.9830508474576 95.37998822356005 L 478.10169491525426 36.348866522936675 L 489.22033898305085 30.863850824803222 L 500.33898305084745 97.47717287570839 L 511.45762711864404 91.9457843569835 L 522.5762711864406 10.739909235263184 L 533.6949152542373 60.50406389041109 L 544.8135593220339 14.854282187120646 L 555.9322033898305 21.007722469396384 L 567.0508474576271 24.629251632654444 L 578.1694915254237 67.76367941715642 L 589.2881355932203 36.910336542487954 L 600.4067796610169 18.276818567253088 L 611.5254237288135 69.96786179281551 L 622.6440677966102 69.83002064324691 L 633.7627118644068 13.013200262687747 L 644.8813559322034 27.943587785864537 L 656.0 77.20054193368219" fill-opacity="0"/></g></g></g><g transform="translate(1, 1)"><g transform="translate(329.0, 11.25)" class="drag-handle-icon hover" fill="rgb(51, 51, 51)" display="none" opacity="0.3"><svg width="45" height="22.5" viewBox="0 0 38 6" version="1.1" id="gdjbhoynav">
    <g stroke-width="1" fill-rule="evenodd">
        <rect x="0" y="0" width="2" height="2"/>
        <rect x="4" y="0" width="2" height="2"/>
        <rect x="0" y="4" width="2" height="2"/>
        <rect x="4" y="4" width="2" height="2"/>
        <rect x="8" y="0" width="2" height="2"/>
        <rect x="12" y="0" width="2" height="2"/>
        <rect x="8" y="4" width="2" height="2"/>
        <rect x="12" y="4" width="2" height="2"/>
        <rect x="16" y="0" width="2" height="2"/>
        <rect x="16" y="4" width="2" height="2"/>
        <rect x="20" y="0" width="2" height="2"/>
        <rect x="24" y="0" width="2" height="2"/>
        <rect x="20" y="4" width="2" height="2"/>
        <rect x="24" y="4" width="2" height="2"/>
        <rect x="28" y="0" width="2" height="2"/>
        <rect x="32" y="0" width="2" height="2"/>
        <rect x="28" y="4" width="2" height="2"/>
        <rect x="32" y="4" width="2" height="2"/>
        <rect x="36" y="0" width="2" height="2"/>
        <rect x="36" y="4" width="2" height="2"/>
    </g>
</svg></g><g class="title drag-handle" pointer-events="all"><rect width="703" height="45" class="title-background" stroke-dasharray="0 748 703 45" fill-opacity="0"/><g style="fill:#333333;font-size:15px;text-anchor:start;font-family:Open Sans" transform="translate(15, 0)"><text y="28.0">Random Sequence</text></g></g></g><g transform="translate(674, 1)" class="settings-button" pointer-events="all" display="none"><rect width="30" height="45" fill="#000000" fill-opacity="0.0"/><circle cx="15.0" cy="15.0" r="2.5" fill="#333333" fill-opacity="0.3"/><circle cx="15.0" cy="22.5" r="2.5" fill="#333333" fill-opacity="0.3"/><circle cx="15.0" cy="30.0" r="2.5" fill="#333333" fill-opacity="0.3"/></g></svg>