<?xml version='1.0' encoding='utf-8'?>
<?xml-stylesheet href="https://fonts.googleapis.com/css?family=Open+Sans:300italic,400italic,600italic,700italic,800italic,400,300,600,700,800|Open+Sans+Condensed:300,300italic,700" type="text/css"?><svg xmlns:xlink="http://www.w3.org/1999/xlink" xmlns="http://www.w3.org/2000/svg" preserveAspectRatio="xMinYMin" viewBox="0 0 705 345" width="705" height="345"><rect fill="#eeeeee" height="345" width="705"/><rect transform="translate(1, 1)" width="703" height="343" fill="#ffffff" class="background" fill-opacity="1.0" style="shape-rendering: crispEdges"/><g class="chart-body" pointer-events="all" transform="translate(15, 60)"><rect width="675" height="270" fill-opacity="0" style="shape-rendering: crispEdges"/><g class="vertical labels"><g style="font-family:Open Sans;font-size:12px;text-anchor:end;fill:#333333" transform="translate(24.0, 239.0)"><text y="12">0</text></g><g style="font-family:Open Sans;font-size:12px;text-anchor:end;fill:#333333" transform="translate(24.0, 161.25218287385937)"><text y="12">800</text></g><g style="font-family:Open Sans;font-size:12px;text-anchor:end;fill:#333333" transform="translate(24.0, 83.50436574771874)"><text y="12">1.6K</text></g><g style="font-family:Open Sans;font-size:12px;text-anchor:end;fill:#333333" transform="translate(24.0, 5.756548621578105)"><text y="12">2.4K</text></g></g><g transform="translate(29.0, 248)" class="horizontal labels"><g style="font-family:Open Sans;font-size:12px;text-anchor:middle;fill:#333333" transform="translate(43.79661016949152, 5)"><text y="12">Feb 5, 2017</text></g><g style="font-family:Open Sans;font-size:12px;text-anchor:middle;fill:#333333" transform="translate(153.28813559322035, 5)"><text y="12">Feb 15, 2017</text></g><g style="font-family:Open Sans;font-size:12px;text-anchor:middle;fill:#333333" transform="translate(262.77966101694915, 5)"><text y="12">Feb 25, 2017</text></g><g style="font-family:Open Sans;font-size:12px;text-anchor:middle;fill:#333333" transform="translate(372.271186440678, 5)"><text y="12">Mar 7, 2017</text></g><g style="font-family:Open Sans;font-size:12px;text-anchor:middle;fill:#333333" transform="translate(481.76271186440675, 5)"><text y="12">Mar 17, 2017</text></g><g style="font-family:Open Sans;font-size:12px;text-anchor:middle;fill:#333333" transform="translate(591.2542372881356, 5)"><text y="12">Mar 27, 2017</text></g></g><g transform="translate(29.0, 0)" class="guide lines"><line x1="43.79661016949152" y1="248" x2="43.79661016949152" y2="0" stroke="#F2F2F2"/><line x1="153.28813559322035" y1="248" x2="153.28813559322035" y2="0" stroke="#F2F2F2"/><line x1="262.77966101694915" y1="248" x2="262.77966101694915" y2="0" stroke="#F2F2F2"/><line x1="372.271186440678" y1="248" x2="372.271186440678" y2="0" stroke="#F2F2F2"/><line x1="481.76271186440675" y1="248" x2="481.76271186440675" y2="0" stroke="#F2F2F2"/><line x1="591.2542372881356" y1="248" x2="591.2542372881356" y2="0" stroke="#F2F2F2"/><line x1="0" y1="248.0" x2="646.0" y2="248.0" stroke="#F2F2F2"/><line x1="0" y1="170.25218287385937" x2="646.0" y2="170.25218287385937" stroke="#F2F2F2"/><line x1="0" y1="92.50436574771874" x2="646.0" y2="92.50436574771874" stroke="#F2F2F2"/><line x1="0" y1="14.756548621578105" x2="646.0" y2="14.756548621578105" stroke="#F2F2F2"/></g><g transform="translate(29.0, 0)"><g clip-path="url(#clip-id-139833019627112)" class="plot"><clipPath id="clip-id-139833019627112"><rect class="background" height="248" width="646.0" x="0" y="0"/></clipPath><path class="tooltip-trigger line" stroke="#0b84a5" fill="#0b84a5" stroke-width="1.75" d="M 0.0 248.0 L 10.94915254237288 216.16184138441287 L 21.89830508474576 183.15926368233278 L 32.847457627118644 165.43293552377546 L 43.79661016949152 149.57553158906217 L 54.74576271186441 154.7795171629965 L 65.69491525423729 156.38501676806857 L 76.64406779661017 152.31898968638473 L 87.59322033898304 143.87596355381206 L 98.54237288135593 132.15142755328387 L 109.49152542372882 120.53335758136976 L 120.44067796610169 136.389650530753 L 131.38983050847457 111.6429788233034 L 142.33898305084745 125.75190326731818 L 153.28813559322035 106.32314263452048 L 164.23728813559322 94.31281330956705 L 175.1864406779661 76.12938774343917 L 186.135593220339 80.90189610053167 L 197.08474576271186 118.18678843201931 L 208.03389830508473 73.1069434073124 L 218.98305084745763 79.88320844651781 L 229.9322033898305 84.02776912793314 L 240.88135593220338 72.92586219925687 L 251.83050847457628 66.30530548172058 L 262.77966101694915 79.70046414286463 L 273.728813559322 89.37621612959552 L 284.6779661016949 63.12709867483332 L 295.6271186440678 79.02336477046714 L 306.5762711864407 86.74609707378153 L 317.52542372881356 35.215957838568414 L 328.47457627118644 99.05580297437407 L 339.4237288135593 42.065652517577035 L 350.3728813559322 90.01363418686773 L 361.3220338983051 35.75782375091339 L 372.271186440678 50.075818874221426 L 383.22033898305085 93.80693588832224 L 394.1694915254237 71.4100691280075 L 405.1186440677966 27.768156081894745 L 416.06779661016947 76.41920213140347 L 427.0169491525424 48.48133025453669 L 437.96610169491527 71.43604887751835 L 448.91525423728814 32.01751898242409 L 459.864406779661 34.38255083856407 L 470.8135593220339 26.623183513779537 L 481.76271186440675 12.363175590655715 L 492.7118644067797 72.64158927150433 L 503.66101694915255 53.10100101317613 L 514.6101694915254 18.61689922535868 L 525.5593220338983 9.015382438405197 L 536.5084745762712 42.61114968504788 L 547.457627118644 34.406513705656835 L 558.4067796610169 37.33504023206612 L 569.3559322033898 80.29769144156899 L 580.3050847457627 61.11508110269 L 591.2542372881356 58.9436999239754 L 602.2033898305085 37.40297919187864 L 613.1525423728814 32.38620154839202 L 624.1016949152543 0.0546097361973068 L 635.0508474576271 0.0 L 646.0 6.388985851732542" fill-opacity="0"/></g></g></g><g transform="translate(1, 1)"><g transform="translate(329.0, 11.25)" fill="rgb(51, 51, 51)" class="drag-handle-icon hover" opacity="0.3" display="none"><svg width="45" height="22.5" viewBox="0 0 38 6" version="1.1" id="hehduqsutn">
    <g stroke-width="1" fill-rule="evenodd">
        <rect x="0" y="0" width="2" height="2"/>
        <rect x="4" y="0" width="2" height="2"/>
        <rect x="0" y="4" width="2" height="2"/>
        <rect x="4" y="4" width="2" height="2"/>
        <rect x="8" y="0" width="2" height="2"/>
        <rect x="12" y="0" width="2" height="2"/>
        <rect x="8" y="4" width="2" height="2"/>
        <rect x="12" y="4" width="2" height="2"/>
        <rect x="16" y="0" width="2" height="2"/>
        <rect x="16" y="4" width="2" height="2"/>
        <rect x="20" y="0" width="2" height="2"/>
        <rect x="24" y="0" width="2" height="2"/>
        <rect x="20" y="4" width="2" height="2"/>
        <rect x="24" y="4" width="2" height="2"/>
        <rect x="28" y="0" width="2" height="2"/>
        <rect x="32" y="0" width="2" height="2"/>
        <rect x="28" y="4" width="2" height="2"/>
        <rect x="32" y="4" width="2" height="2"/>
        <rect x="36" y="0" width="2" height="2"/>
        <rect x="36" y="4" width="2" height="2"/>
    </g>
</svg></g><g class="title drag-handle" pointer-events="all"><rect width="703" height="45" fill-opacity="0" class="title-background" stroke-dasharray="0 748 703 45"/><g style="font-family:Open Sans;font-size:15px;text-anchor:start;fill:#333333" transform="translate(15, 0)"><text y="28.0">Log Growth Random Sequence</text></g></g></g><g transform="translate(674, 1)" class="settings-button" pointer-events="all" display="none"><rect width="30" height="45" fill="#000000" fill-opacity="0.0"/><circle cx="15.0" cy="15.0" r="2.5" fill="#333333" fill-opacity="0.3"/><circle cx="15.0" cy="22.5" r="2.5" fill="#333333" fill-opacity="0.3"/><circle cx="15.0" cy="30.0" r="2.5" fill="#333333" fill-opacity="0.3"/></g></svg>