<?xml version="1.0" encoding="UTF-8" standalone="no"?>
<!DOCTYPE svg PUBLIC "-//W3C//DTD SVG 1.1//EN" "http://www.w3.org/Graphics/SVG/1.1/DTD/svg11.dtd">
<svg width="100%" height="100%" viewBox="0 0 5568 1695" version="1.1" xmlns="http://www.w3.org/2000/svg" xmlns:xlink="http://www.w3.org/1999/xlink" xml:space="preserve" xmlns:serif="http://www.serif.com/" style="fill-rule:evenodd;clip-rule:evenodd;stroke-linejoin:round;stroke-miterlimit:1.41421;">
    <g id="chartio-logo-black-tbg" transform="matrix(1.15186,0,0,2.17686,125.553,3.55753e-13)">
        <rect x="-109" y="0" width="4833.41" height="778.63" style="fill:none;"/>
        <g transform="matrix(4.94183,0,0,2.61491,256.93,210.473)">
            <path d="M65.24,93.405C65.432,91.317 66.953,89.612 69.038,89.612L88.033,89.612C90.122,89.612 91.834,91.317 91.834,93.405C91.834,118.789 72.837,136.787 46.627,136.787C20.417,136.787 4.08,117.66 1.422,94.921C-0.474,79.004 -0.474,57.784 1.422,41.871C4.08,19.137 20.417,0 46.627,0C72.837,0 91.834,17.993 91.834,43.387C91.834,45.465 90.122,47.178 88.033,47.178L69.038,47.178C66.953,47.178 65.432,45.465 65.24,43.387C64.481,33.533 57.454,26.718 46.627,26.718C35.043,26.718 29.152,33.533 28.201,41.871C26.306,57.784 26.306,79.004 28.201,94.921C29.152,103.256 35.043,110.081 46.627,110.081C57.454,110.081 64.481,103.256 65.24,93.405ZM155.232,53.237C155.232,54.373 155.993,55.135 157.133,55.135L186.006,55.135C187.142,55.135 187.902,54.373 187.902,53.237L187.902,5.872C187.902,3.786 189.613,2.081 191.704,2.081L210.697,2.081C212.784,2.081 214.494,3.786 214.494,5.872L214.494,130.919C214.494,133 212.784,134.706 210.697,134.706L191.704,134.706C189.613,134.706 187.902,133 187.902,130.919L187.902,83.549C187.902,82.418 187.142,81.664 186.006,81.664L157.133,81.664C155.993,81.664 155.232,82.418 155.232,83.549L155.232,130.919C155.232,133 152.578,134.706 150.489,134.706L132.443,134.706C130.351,134.706 128.646,133 128.646,130.919L128.646,5.872C128.646,3.786 130.351,2.081 132.443,2.081L151.435,2.081C153.528,2.081 155.232,3.786 155.232,5.872L155.232,53.237ZM274.289,131.866C273.907,133.575 272.388,134.706 270.679,134.706L250.736,134.706C247.699,134.706 246.556,132.628 246.934,130.919L280.937,4.926C281.318,3.224 282.837,2.081 284.544,2.081L309.997,2.081C311.705,2.081 313.222,3.224 313.605,4.926L347.414,130.919C347.797,132.628 346.654,134.706 343.618,134.706L323.673,134.706C321.963,134.706 320.635,133.575 320.064,131.866L314.174,112.348C313.793,110.835 313.033,109.515 311.326,109.515L282.455,109.515C280.746,109.515 279.985,110.644 279.603,112.348L274.289,131.866ZM286.823,80.903C286.443,82.418 287.206,82.982 288.345,82.982L305.818,82.982C306.958,82.982 307.717,82.418 307.334,80.903L298.218,35.428C298.03,34.865 297.839,34.669 297.27,34.669L296.889,34.669C296.322,34.669 296.131,34.865 295.937,35.428L286.823,80.903ZM410.245,81.664C409.107,81.664 408.348,82.418 408.348,83.549L408.348,130.919C408.348,133 406.64,134.706 404.551,134.706L385.555,134.706C383.466,134.706 381.755,133 381.755,130.919L381.755,5.872C381.755,3.786 383.466,2.081 385.555,2.081L427.338,2.081C449.184,2.081 467.23,20.081 467.23,41.871C467.23,56.461 460.967,66.312 447.474,75.404C444.818,77.295 445.003,78.813 446.333,81.664L466.662,129.025C467.992,131.866 466.844,134.706 463.046,134.706L443.493,134.706C440.452,134.706 438.923,133.198 437.986,130.919L418.61,84.123C418.225,83.172 417.269,81.664 415.187,81.664L410.245,81.664ZM410.245,28.606C409.107,28.606 408.348,29.362 408.348,30.496L408.348,53.237C408.348,54.373 409.107,55.135 410.245,55.135L427.338,55.135C434.555,55.135 440.637,49.258 440.637,41.871C440.637,34.669 434.555,28.606 427.338,28.606L410.245,28.606ZM502.067,28.606C499.976,28.606 498.266,26.903 498.266,24.816L498.266,5.872C498.266,3.786 499.976,2.081 502.067,2.081L583.743,2.081C585.829,2.081 587.537,3.786 587.537,5.872L587.537,24.816C587.537,26.903 585.829,28.606 583.743,28.606L558.102,28.606C556.958,28.606 556.196,29.362 556.196,30.496L556.196,130.919C556.196,133 554.487,134.706 552.402,134.706L533.409,134.706C531.314,134.706 529.608,133 529.608,130.919L529.608,30.496C529.608,29.362 528.841,28.606 527.712,28.606L502.067,28.606ZM649.91,29.552C649.91,28.418 649.162,27.664 648.021,27.664L629.028,27.664C626.935,27.664 625.226,25.955 625.226,23.872L625.226,5.872C625.226,3.786 626.935,2.081 629.028,2.081L697.397,2.081C699.495,2.081 701.201,3.786 701.201,5.872L701.201,23.872C701.201,25.955 699.495,27.664 697.397,27.664L678.415,27.664C677.273,27.664 676.508,28.418 676.508,29.552L676.508,107.229C676.508,108.372 677.273,109.129 678.415,109.129L699.305,109.129C701.39,109.129 703.099,110.835 703.099,112.924L703.099,130.919C703.099,133 701.39,134.706 699.305,134.706L627.123,134.706C625.028,134.706 623.329,133 623.329,130.919L623.329,112.924C623.329,110.835 625.028,109.129 627.123,109.129L648.021,109.129C649.162,109.129 649.91,108.372 649.91,107.229L649.91,29.552ZM828.537,41.871C830.441,57.784 830.441,79.004 828.537,94.921C825.882,117.66 809.554,136.787 783.332,136.787C757.127,136.787 740.786,117.66 738.135,94.921C736.221,79.004 736.221,57.784 738.135,41.871C740.786,19.137 757.127,0 783.332,0C809.554,0 825.882,19.137 828.537,41.871ZM764.906,41.871C763.017,57.784 763.017,79.004 764.906,94.921C765.859,103.256 771.749,110.081 783.332,110.081C794.922,110.081 800.803,103.256 801.758,94.921C803.655,79.004 803.655,57.784 801.758,41.871C800.803,33.533 794.922,26.718 783.332,26.718C771.749,26.718 765.859,33.533 764.906,41.871Z" style="fill:rgb(34,34,34);"/>
        </g>
    </g>
</svg>
