<svg width="393" height="149" viewBox="0 0 393 149" fill="none" xmlns="http://www.w3.org/2000/svg">
<path d="M125.977 20H120.771V4.9876H116.066V0.7304H130.67V4.9876H125.977V20ZM149.582 20H144.349V12.1445H138.299V20H133.067V0.7304H138.299V7.8741H144.349V0.7304H149.582V20ZM164.843 20H153.402V0.7304H164.843V4.9086H158.609V7.94H164.381V12.1182H158.609V15.7559H164.843V20Z" fill="#343A40"/>
<path fill-rule="evenodd" clip-rule="evenodd" d="M35.8389 147.97V47.1949H57.6789V147.97H35.8389Z" fill="#FCC74C"/>
<path fill-rule="evenodd" clip-rule="evenodd" d="M71.2573 147.97V20.038H93.0973V147.97H71.2573Z" fill="#FCC74C"/>
<path fill-rule="evenodd" clip-rule="evenodd" d="M0.992577 143.837L15.0396 71.5712L36.4783 75.7385L22.4313 148.004L0.992577 143.837Z" fill="#FCC74C"/>
<path d="M150.442 132.678C150.442 135.807 149.649 138.591 148.061 141.029C146.474 143.445 144.185 145.331 141.194 146.689C138.203 148.023 134.695 148.69 130.669 148.69C127.31 148.69 124.492 148.46 122.215 148C119.937 147.517 117.567 146.689 115.106 145.515V133.368C117.705 134.703 120.409 135.75 123.215 136.509C126.022 137.245 128.599 137.613 130.945 137.613C132.97 137.613 134.454 137.268 135.397 136.578C136.34 135.865 136.812 134.956 136.812 133.852C136.812 133.161 136.616 132.563 136.225 132.057C135.857 131.528 135.247 130.999 134.396 130.47C133.568 129.941 131.336 128.859 127.701 127.226C124.412 125.731 121.938 124.281 120.282 122.878C118.649 121.475 117.429 119.864 116.624 118.047C115.842 116.229 115.451 114.078 115.451 111.594C115.451 106.946 117.142 103.323 120.524 100.723C123.905 98.124 128.553 96.824 134.465 96.824C139.687 96.824 145.013 98.032 150.442 100.447L146.267 110.972C141.551 108.81 137.479 107.729 134.051 107.729C132.28 107.729 130.991 108.039 130.186 108.66C129.381 109.282 128.978 110.052 128.978 110.972C128.978 111.962 129.484 112.847 130.497 113.63C131.532 114.412 134.316 115.838 138.848 117.909C143.196 119.864 146.209 121.969 147.889 124.224C149.591 126.455 150.442 129.273 150.442 132.678V132.678ZM179.481 108.005C176.238 108.005 173.707 109.339 171.889 112.008C170.072 114.653 169.163 118.311 169.163 122.981C169.163 132.69 172.856 137.544 180.241 137.544C182.472 137.544 184.635 137.233 186.728 136.612C188.822 135.991 190.927 135.243 193.043 134.369V145.895C188.833 147.758 184.071 148.69 178.757 148.69C171.142 148.69 165.298 146.482 161.226 142.065C157.177 137.647 155.153 131.263 155.153 122.912C155.153 117.69 156.131 113.1 158.086 109.144C160.065 105.187 162.894 102.15 166.575 100.033C170.279 97.894 174.627 96.824 179.619 96.824C185.072 96.824 190.282 98.009 195.252 100.378L191.076 111.11C189.213 110.236 187.349 109.5 185.486 108.902C183.622 108.304 181.621 108.005 179.481 108.005ZM244.927 148H231.227V127.433H215.387V148H201.688V97.549H215.387V116.252H231.227V97.549H244.927V148ZM301.848 122.705C301.848 131.194 299.766 137.647 295.602 142.065C291.438 146.482 285.342 148.69 277.313 148.69C269.399 148.69 263.325 146.47 259.092 142.03C254.882 137.59 252.777 131.125 252.777 122.636C252.777 114.239 254.871 107.832 259.058 103.415C263.268 98.975 269.376 96.755 277.382 96.755C285.411 96.755 291.496 98.952 295.637 103.346C299.778 107.74 301.848 114.193 301.848 122.705V122.705ZM267.133 122.705C267.133 132.46 270.526 137.337 277.313 137.337C280.764 137.337 283.317 136.152 284.974 133.783C286.653 131.413 287.493 127.721 287.493 122.705C287.493 117.667 286.642 113.952 284.939 111.559C283.26 109.144 280.741 107.936 277.382 107.936C270.549 107.936 267.133 112.859 267.133 122.705ZM356.941 122.705C356.941 131.194 354.859 137.647 350.695 142.065C346.531 146.482 340.435 148.69 332.406 148.69C324.492 148.69 318.418 146.47 314.185 142.03C309.975 137.59 307.87 131.125 307.87 122.636C307.87 114.239 309.964 107.832 314.151 103.415C318.361 98.975 324.469 96.755 332.475 96.755C340.504 96.755 346.589 98.952 350.73 103.346C354.871 107.74 356.941 114.193 356.941 122.705V122.705ZM322.226 122.705C322.226 132.46 325.619 137.337 332.406 137.337C335.856 137.337 338.41 136.152 340.066 133.783C341.746 131.413 342.586 127.721 342.586 122.705C342.586 117.667 341.734 113.952 340.032 111.559C338.353 109.144 335.833 107.936 332.475 107.936C325.642 107.936 322.226 112.859 322.226 122.705ZM364.826 148V97.549H378.457V136.992H397.885V148H364.826Z" fill="#343A40"/>
<path d="M157.27 58.7047C157.27 67.1247 154.946 73.6123 150.299 78.1674C145.675 82.7225 139.164 85.0001 130.767 85.0001H114.445V34.5488H131.906C140.004 34.5488 146.25 36.6193 150.644 40.7603C155.061 44.9013 157.27 50.8828 157.27 58.7047ZM143.121 59.1878C143.121 54.5637 142.201 51.1358 140.361 48.9043C138.543 46.6727 135.771 45.557 132.044 45.557H128.076V73.8194H131.113C135.254 73.8194 138.29 72.6231 140.223 70.2305C142.155 67.8149 143.121 64.134 143.121 59.1878V59.1878ZM195.604 85.0001L193.119 75.5448H176.727L174.174 85.0001H159.197L175.658 34.3417H193.844L210.511 85.0001H195.604ZM190.289 64.3641L188.115 56.082C187.609 54.2416 186.988 51.8605 186.252 48.9388C185.539 46.0171 185.067 43.9236 184.837 42.6582C184.63 43.8315 184.216 45.764 183.595 48.4557C182.996 51.1473 181.651 56.4501 179.557 64.3641H190.289ZM236.56 85.0001H222.929V45.695H210.609V34.5488H248.845V45.695H236.56V85.0001ZM285.315 85.0001L282.83 75.5448H266.439L263.885 85.0001H248.909L265.369 34.3417H283.555L300.223 85.0001H285.315ZM280.001 64.3641L277.827 56.082C277.32 54.2416 276.699 51.8605 275.963 48.9388C275.25 46.0171 274.778 43.9236 274.548 42.6582C274.341 43.8315 273.927 45.764 273.306 48.4557C272.708 51.1473 271.362 56.4501 269.269 64.3641H280.001Z" fill="#343A40"/>
</svg>
