<svg width="394" height="198" viewBox="0 0 394 198" fill="none" xmlns="http://www.w3.org/2000/svg">
<g clip-path="url(#clip0)">
<path d="M126.977 29H121.771V13.9876H117.066V9.7304H131.67V13.9876H126.977V29ZM150.582 29H145.349V21.1445H139.299V29H134.067V9.7304H139.299V16.8741H145.349V9.7304H150.582V29ZM165.843 29H154.402V9.7304H165.843V13.9086H159.609V16.94H165.381V21.1182H159.609V24.7559H165.843V29Z" fill="#12100D"/>
<path d="M118.075 169.73H124.797C127.416 169.73 129.358 170.121 130.623 170.903C131.897 171.677 132.534 172.885 132.534 174.528C132.534 175.609 132.257 176.531 131.704 177.296C131.15 178.06 130.421 178.552 129.516 178.772V178.904C130.711 179.22 131.576 179.747 132.112 180.486C132.648 181.224 132.916 182.181 132.916 183.359C132.916 185.107 132.257 186.487 130.939 187.497C129.63 188.499 127.842 189 125.575 189H118.075V169.73ZM123.281 177.125H124.85C125.597 177.125 126.172 176.971 126.576 176.663C126.989 176.356 127.196 175.899 127.196 175.292C127.196 174.212 126.379 173.671 124.744 173.671H123.281V177.125ZM123.281 180.934V184.98H125.113C126.739 184.98 127.552 184.295 127.552 182.924C127.552 182.282 127.332 181.79 126.893 181.448C126.462 181.105 125.834 180.934 125.008 180.934H123.281ZM142.93 176.874L146.251 169.73H151.892L145.552 181.474V189H140.307V181.632L133.967 169.73H139.635L142.93 176.874ZM169.138 173.724C167.899 173.724 166.932 174.234 166.238 175.253C165.544 176.263 165.197 177.661 165.197 179.444C165.197 183.152 166.607 185.006 169.428 185.006C170.28 185.006 171.106 184.888 171.906 184.65C172.705 184.413 173.509 184.128 174.318 183.794V188.196C172.71 188.908 170.891 189.264 168.861 189.264C165.953 189.264 163.721 188.42 162.166 186.733C160.619 185.046 159.846 182.608 159.846 179.418C159.846 177.423 160.219 175.67 160.966 174.159C161.722 172.648 162.803 171.488 164.209 170.679C165.623 169.862 167.284 169.454 169.191 169.454C171.273 169.454 173.263 169.906 175.161 170.811L173.567 174.91C172.855 174.576 172.143 174.295 171.431 174.067C170.72 173.838 169.955 173.724 169.138 173.724ZM194.388 189H189.155V181.145H183.106V189H177.873V169.73H183.106V176.874H189.155V169.73H194.388V189ZM210.174 189L209.225 185.389H202.965L201.989 189H196.269L202.556 169.651H209.502L215.868 189H210.174ZM208.144 181.118L207.314 177.955C207.121 177.252 206.884 176.343 206.602 175.227C206.33 174.111 206.15 173.311 206.062 172.828C205.983 173.276 205.825 174.014 205.587 175.042C205.359 176.07 204.845 178.095 204.045 181.118H208.144ZM222.956 181.988V189H217.749V169.73H224.063C229.3 169.73 231.918 171.628 231.918 175.424C231.918 177.656 230.829 179.383 228.649 180.604L234.264 189H228.359L224.274 181.988H222.956ZM222.956 178.074H223.931C225.75 178.074 226.659 177.27 226.659 175.662C226.659 174.335 225.767 173.671 223.984 173.671H222.956V178.074ZM244.304 189H239.098V173.988H234.392V169.73H248.996V173.988H244.304V189ZM251.536 189V169.73H256.769V189H251.536ZM278.763 179.339C278.763 182.581 277.968 185.046 276.378 186.733C274.787 188.42 272.459 189.264 269.392 189.264C266.369 189.264 264.05 188.416 262.433 186.72C260.825 185.024 260.021 182.555 260.021 179.312C260.021 176.105 260.82 173.658 262.42 171.971C264.028 170.275 266.361 169.427 269.418 169.427C272.485 169.427 274.809 170.266 276.391 171.945C277.972 173.623 278.763 176.088 278.763 179.339ZM265.504 179.339C265.504 183.064 266.8 184.927 269.392 184.927C270.71 184.927 271.685 184.475 272.318 183.57C272.96 182.665 273.28 181.254 273.28 179.339C273.28 177.415 272.955 175.995 272.305 175.082C271.663 174.159 270.701 173.698 269.418 173.698C266.809 173.698 265.504 175.578 265.504 179.339Z" fill="#12100D"/>
<path fill-rule="evenodd" clip-rule="evenodd" d="M36.8389 156.97V56.1948H58.6789V156.97H36.8389Z" fill="#FCC74C"/>
<path fill-rule="evenodd" clip-rule="evenodd" d="M72.2573 156.97V29.0381H94.0973V156.97H72.2573Z" fill="#FCC74C"/>
<path fill-rule="evenodd" clip-rule="evenodd" d="M1.99258 152.837L16.0396 80.5713L37.4783 84.7386L23.4313 157.004L1.99258 152.837Z" fill="#FCC74C"/>
<path d="M151.442 141.678C151.442 144.807 150.649 147.591 149.061 150.029C147.474 152.445 145.185 154.331 142.194 155.689C139.203 157.023 135.695 157.69 131.669 157.69C128.31 157.69 125.492 157.46 123.214 157C120.937 156.517 118.567 155.689 116.106 154.515V142.368C118.705 143.703 121.409 144.75 124.215 145.509C127.022 146.245 129.599 146.613 131.945 146.613C133.97 146.613 135.453 146.268 136.397 145.578C137.34 144.865 137.812 143.956 137.812 142.852C137.812 142.161 137.616 141.563 137.225 141.057C136.857 140.528 136.247 139.999 135.396 139.47C134.568 138.941 132.336 137.859 128.701 136.226C125.412 134.731 122.938 133.281 121.282 131.878C119.649 130.475 118.429 128.864 117.624 127.047C116.842 125.229 116.451 123.078 116.451 120.594C116.451 115.946 118.142 112.323 121.524 109.723C124.905 107.124 129.553 105.824 135.465 105.824C140.687 105.824 146.013 107.032 151.442 109.447L147.267 119.972C142.551 117.81 138.479 116.729 135.051 116.729C133.279 116.729 131.991 117.039 131.186 117.66C130.381 118.282 129.978 119.052 129.978 119.972C129.978 120.962 130.484 121.847 131.497 122.63C132.532 123.412 135.315 124.838 139.848 126.909C144.196 128.864 147.209 130.969 148.889 133.224C150.591 135.455 151.442 138.273 151.442 141.678ZM180.481 117.005C177.237 117.005 174.707 118.339 172.889 121.008C171.072 123.653 170.163 127.311 170.163 131.981C170.163 141.69 173.856 146.544 181.24 146.544C183.472 146.544 185.635 146.233 187.728 145.612C189.822 144.991 191.927 144.243 194.043 143.369V154.895C189.833 156.758 185.071 157.69 179.757 157.69C172.142 157.69 166.298 155.482 162.226 151.065C158.177 146.647 156.153 140.263 156.153 131.912C156.153 126.69 157.131 122.1 159.086 118.144C161.065 114.187 163.894 111.15 167.575 109.033C171.279 106.894 175.627 105.824 180.619 105.824C186.072 105.824 191.282 107.009 196.252 109.378L192.076 120.11C190.213 119.236 188.349 118.5 186.486 117.902C184.622 117.304 182.621 117.005 180.481 117.005ZM245.927 157H232.227V136.433H216.387V157H202.688V106.549H216.387V125.252H232.227V106.549H245.927V157ZM302.848 131.705C302.848 140.194 300.766 146.647 296.602 151.065C292.438 155.482 286.342 157.69 278.313 157.69C270.399 157.69 264.325 155.47 260.092 151.03C255.882 146.59 253.777 140.125 253.777 131.636C253.777 123.239 255.871 116.832 260.058 112.415C264.268 107.975 270.376 105.755 278.382 105.755C286.411 105.755 292.496 107.952 296.637 112.346C300.778 116.74 302.848 123.193 302.848 131.705ZM268.133 131.705C268.133 141.46 271.526 146.337 278.313 146.337C281.764 146.337 284.317 145.152 285.974 142.783C287.653 140.413 288.493 136.721 288.493 131.705C288.493 126.667 287.642 122.952 285.939 120.559C284.26 118.144 281.741 116.936 278.382 116.936C271.549 116.936 268.133 121.859 268.133 131.705ZM357.941 131.705C357.941 140.194 355.859 146.647 351.695 151.065C347.531 155.482 341.434 157.69 333.406 157.69C325.492 157.69 319.418 155.47 315.185 151.03C310.975 146.59 308.87 140.125 308.87 131.636C308.87 123.239 310.964 116.832 315.151 112.415C319.361 107.975 325.469 105.755 333.475 105.755C341.504 105.755 347.588 107.952 351.73 112.346C355.871 116.74 357.941 123.193 357.941 131.705ZM323.226 131.705C323.226 141.46 326.619 146.337 333.406 146.337C336.856 146.337 339.41 145.152 341.066 142.783C342.746 140.413 343.586 136.721 343.586 131.705C343.586 126.667 342.734 122.952 341.032 120.559C339.352 118.144 336.833 116.936 333.475 116.936C326.642 116.936 323.226 121.859 323.226 131.705ZM365.826 157V106.549H379.457V145.992H398.885V157H365.826Z" fill="#12100D"/>
<path d="M158.27 67.7046C158.27 76.1246 155.946 82.6122 151.299 87.1673C146.675 91.7224 140.164 94 131.767 94H115.445V43.5487H132.906C141.004 43.5487 147.25 45.6192 151.644 49.7602C156.061 53.9012 158.27 59.8827 158.27 67.7046ZM144.121 68.1877C144.121 63.5636 143.201 60.1357 141.361 57.9042C139.543 55.6726 136.771 54.5569 133.044 54.5569H129.076V82.8193H132.112C136.253 82.8193 139.29 81.623 141.223 79.2304C143.155 76.8148 144.121 73.1339 144.121 68.1877ZM196.603 94L194.119 84.5447H177.727L175.174 94H160.197L176.657 43.3416H194.843L211.511 94H196.603ZM191.289 73.364L189.115 65.0819C188.609 63.2415 187.988 60.8604 187.252 57.9387C186.538 55.017 186.067 52.9235 185.837 51.6582C185.63 52.8314 185.216 54.7639 184.594 57.4556C183.996 60.1472 182.65 65.45 180.557 73.364H191.289ZM237.56 94H223.929V54.6949H211.609V43.5487H249.845V54.6949H237.56V94ZM286.315 94L283.83 84.5447H267.439L264.885 94H249.908L266.369 43.3416H284.555L301.222 94H286.315ZM281 73.364L278.826 65.0819C278.32 63.2415 277.699 60.8604 276.963 57.9387C276.25 55.017 275.778 52.9235 275.548 51.6582C275.341 52.8314 274.927 54.7639 274.306 57.4556C273.708 60.1472 272.362 65.45 270.268 73.364H281Z" fill="#12100D"/>
</g>
<defs>
<clipPath id="clip0">
<rect width="394" height="198" fill="white"/>
</clipPath>
</defs>
</svg>
