<?xml version='1.0' encoding='utf-8'?>
<?xml-stylesheet href="https://fonts.googleapis.com/css?family=Open+Sans:300italic,400italic,600italic,700italic,800italic,400,300,600,700,800|Open+Sans+Condensed:300,300italic,700" type="text/css"?><svg xmlns:xlink="http://www.w3.org/1999/xlink" xmlns="http://www.w3.org/2000/svg" preserveAspectRatio="xMinYMin" viewBox="0 0 705 345" width="705" height="345"><rect fill="#eeeeee" height="345" width="705"/><rect transform="translate(1, 1)" width="703" height="343" fill="#ffffff" class="background" fill-opacity="1.0" style="shape-rendering: crispEdges"/><g class="chart-body" pointer-events="all" transform="translate(15, 60)"><rect width="675" height="270" fill-opacity="0" style="shape-rendering: crispEdges"/><g class="vertical labels"><g style="text-anchor:end;fill:#333333;font-size:12px;font-family:Open Sans" transform="translate(14.0, 239.0)"><text y="12">0</text></g><g style="text-anchor:end;fill:#333333;font-size:12px;font-family:Open Sans" transform="translate(14.0, 178.32137898622554)"><text y="12">1K</text></g><g style="text-anchor:end;fill:#333333;font-size:12px;font-family:Open Sans" transform="translate(14.0, 117.64275797245107)"><text y="12">2K</text></g><g style="text-anchor:end;fill:#333333;font-size:12px;font-family:Open Sans" transform="translate(14.0, 56.96413695867662)"><text y="12">3K</text></g><g style="text-anchor:end;fill:#333333;font-size:12px;font-family:Open Sans" transform="translate(14.0, -3.71448405509787)"><text y="12">4K</text></g></g><g transform="translate(19.0, 248)" class="horizontal labels"><g style="text-anchor:middle;fill:#333333;font-size:12px;font-family:Open Sans" transform="translate(44.47457627118644, 5)"><text y="12">Feb 5, 2017</text></g><g style="text-anchor:middle;fill:#333333;font-size:12px;font-family:Open Sans" transform="translate(155.66101694915255, 5)"><text y="12">Feb 15, 2017</text></g><g style="text-anchor:middle;fill:#333333;font-size:12px;font-family:Open Sans" transform="translate(266.8474576271187, 5)"><text y="12">Feb 25, 2017</text></g><g style="text-anchor:middle;fill:#333333;font-size:12px;font-family:Open Sans" transform="translate(378.03389830508473, 5)"><text y="12">Mar 7, 2017</text></g><g style="text-anchor:middle;fill:#333333;font-size:12px;font-family:Open Sans" transform="translate(489.22033898305085, 5)"><text y="12">Mar 17, 2017</text></g><g style="text-anchor:middle;fill:#333333;font-size:12px;font-family:Open Sans" transform="translate(600.4067796610169, 5)"><text y="12">Mar 27, 2017</text></g></g><g transform="translate(19.0, 0)" class="guide lines"><line x1="44.47457627118644" y1="248" x2="44.47457627118644" y2="0" stroke="#F2F2F2"/><line x1="155.66101694915255" y1="248" x2="155.66101694915255" y2="0" stroke="#F2F2F2"/><line x1="266.8474576271187" y1="248" x2="266.8474576271187" y2="0" stroke="#F2F2F2"/><line x1="378.03389830508473" y1="248" x2="378.03389830508473" y2="0" stroke="#F2F2F2"/><line x1="489.22033898305085" y1="248" x2="489.22033898305085" y2="0" stroke="#F2F2F2"/><line x1="600.4067796610169" y1="248" x2="600.4067796610169" y2="0" stroke="#F2F2F2"/><line x1="0" y1="248.0" x2="656.0" y2="248.0" stroke="#F2F2F2"/><line x1="0" y1="187.32137898622554" x2="656.0" y2="187.32137898622554" stroke="#F2F2F2"/><line x1="0" y1="126.64275797245107" x2="656.0" y2="126.64275797245107" stroke="#F2F2F2"/><line x1="0" y1="65.96413695867662" x2="656.0" y2="65.96413695867662" stroke="#F2F2F2"/><line x1="0" y1="5.28551594490213" x2="656.0" y2="5.28551594490213" stroke="#F2F2F2"/></g><g transform="translate(19.0, 0)"><g clip-path="url(#clip-id-140281137244312)" class="plot"><clipPath id="clip-id-140281137244312"><rect class="background" height="248" width="656.0" x="0" y="0"/></clipPath><path class="tooltip-trigger line" stroke="#0b84a5" fill="#0b84a5" stroke-width="1.75" d="M 0.0 247.05774452955495 L 11.11864406779661 247.16806182180952 L 22.23728813559322 247.17942020754248 L 33.355932203389834 246.89305455307618 L 44.47457627118644 246.94830944397987 L 55.59322033898305 246.33149221319925 L 66.71186440677967 246.25615835862607 L 77.83050847457628 246.62028699368506 L 88.94915254237289 246.37779234961258 L 100.0677966101695 245.32615782636717 L 111.1864406779661 245.41453778085668 L 122.30508474576271 245.89604576346238 L 133.42372881355934 245.41004737641668 L 144.54237288135593 245.02561447263724 L 155.66101694915255 244.06529708832963 L 166.77966101694915 244.3780535746087 L 177.89830508474577 244.37675079897738 L 189.01694915254237 243.51141449439956 L 200.135593220339 244.20703517216995 L 211.25423728813558 242.58325351194114 L 222.3728813559322 240.79448608013038 L 233.4915254237288 242.3095476283658 L 244.61016949152543 240.94046979241335 L 255.72881355932202 239.74252005506338 L 266.8474576271187 236.86800846700612 L 277.96610169491527 240.6273245652811 L 289.08474576271186 239.33640450703817 L 300.20338983050846 238.50752407354432 L 311.3220338983051 233.53761866803248 L 322.4406779661017 237.04255678782704 L 333.5593220338983 228.67511292967828 L 344.6779661016949 232.44422879884718 L 355.79661016949154 231.53984018281253 L 366.91525423728814 222.0300594961454 L 378.03389830508473 223.10034964954338 L 389.1525423728813 224.66240681724057 L 400.271186440678 216.4844153295813 L 411.3898305084746 219.97061932324254 L 422.50847457627117 215.4210632582239 L 433.6271186440678 202.37823972273932 L 444.7457627118644 210.72548618798783 L 455.864406779661 211.50194562542342 L 466.9830508474576 209.0332523976472 L 478.10169491525426 188.8833120025867 L 489.22033898305085 186.55865545115205 L 500.33898305084745 169.2630580209737 L 511.45762711864404 190.77373836844342 L 522.5762711864406 155.54440389988184 L 533.6949152542373 167.13018837376154 L 544.8135593220339 170.25953051230766 L 555.9322033898305 154.17296613948815 L 567.0508474576271 148.5796557280919 L 578.1694915254237 130.11160494809457 L 589.2881355932203 91.90270504255162 L 600.4067796610169 71.89310407362814 L 611.5254237288135 91.94284667387379 L 622.6440677966102 37.53020443017442 L 633.7627118644068 0.0 L 644.8813559322034 26.04542217912737 L 656.0 4.35274369984316" fill-opacity="0"/></g></g></g><g transform="translate(1, 1)"><g transform="translate(329.0, 11.25)" fill="rgb(51, 51, 51)" class="drag-handle-icon hover" opacity="0.3" display="none"><svg width="45" height="22.5" viewBox="0 0 38 6" version="1.1" id="xodoewztgg">
    <g stroke-width="1" fill-rule="evenodd">
        <rect x="0" y="0" width="2" height="2"/>
        <rect x="4" y="0" width="2" height="2"/>
        <rect x="0" y="4" width="2" height="2"/>
        <rect x="4" y="4" width="2" height="2"/>
        <rect x="8" y="0" width="2" height="2"/>
        <rect x="12" y="0" width="2" height="2"/>
        <rect x="8" y="4" width="2" height="2"/>
        <rect x="12" y="4" width="2" height="2"/>
        <rect x="16" y="0" width="2" height="2"/>
        <rect x="16" y="4" width="2" height="2"/>
        <rect x="20" y="0" width="2" height="2"/>
        <rect x="24" y="0" width="2" height="2"/>
        <rect x="20" y="4" width="2" height="2"/>
        <rect x="24" y="4" width="2" height="2"/>
        <rect x="28" y="0" width="2" height="2"/>
        <rect x="32" y="0" width="2" height="2"/>
        <rect x="28" y="4" width="2" height="2"/>
        <rect x="32" y="4" width="2" height="2"/>
        <rect x="36" y="0" width="2" height="2"/>
        <rect x="36" y="4" width="2" height="2"/>
    </g>
</svg></g><g class="title drag-handle" pointer-events="all"><rect width="703" height="45" class="title-background" fill-opacity="0" stroke-dasharray="0 748 703 45"/><g style="text-anchor:start;fill:#333333;font-size:15px;font-family:Open Sans" transform="translate(15, 0)"><text y="28.0">Exponential Random Sequence</text></g></g></g><g transform="translate(674, 1)" class="settings-button" pointer-events="all" display="none"><rect width="30" height="45" fill="#000000" fill-opacity="0.0"/><circle cx="15.0" cy="15.0" r="2.5" fill="#333333" fill-opacity="0.3"/><circle cx="15.0" cy="22.5" r="2.5" fill="#333333" fill-opacity="0.3"/><circle cx="15.0" cy="30.0" r="2.5" fill="#333333" fill-opacity="0.3"/></g></svg>